<svg width="18" height="18" viewBox="0 0 18 18" fill="none" xmlns="http://www.w3.org/2000/svg">
<path d="M16.2049 1.00197C14.681 1.04453 11.2422 1.40635 8.64375 3.6566L8.64375 3.65661C8.52735 3.75741 8.46915 3.80781 8.40919 3.8367C8.3882 3.84681 8.36999 3.85415 8.34785 3.8614C8.28461 3.88213 8.21377 3.88582 8.0721 3.89319H8.0721L4.08371 4.10077C2.68727 4.17346 1.59229 5.32691 1.59229 6.72524C1.59229 8.13307 2.70169 9.29084 4.10824 9.35088L5.07531 9.39216L5.07536 9.39216C5.13721 9.3948 5.16814 9.39612 5.19776 9.40098C5.2809 9.41462 5.35925 9.44905 5.42553 9.50107C5.44914 9.5196 5.47104 9.5415 5.51484 9.5853L8.41197 12.4824C8.45577 12.5262 8.47767 12.5481 8.49621 12.5717C8.54823 12.638 8.58265 12.7164 8.59629 12.7995C8.60115 12.8291 8.60247 12.8601 8.60512 12.922L8.64639 13.889C8.70643 15.2956 9.8642 16.405 11.272 16.405C12.6704 16.405 13.8238 15.31 13.8965 13.9136L14.1041 9.92516C14.1115 9.78349 14.1151 9.71266 14.1359 9.64941C14.1431 9.62727 14.1505 9.60906 14.1606 9.58807C14.1895 9.52811 14.2399 9.46991 14.3407 9.35351L14.3407 9.35351C16.5909 6.75502 16.9527 3.31628 16.9953 1.79233C17.0037 1.49024 17.008 1.33919 16.9096 1.2022C16.8816 1.16321 16.8341 1.11567 16.7951 1.08768C16.6581 0.989312 16.507 0.993531 16.2049 1.00197Z" stroke="#1E1E1E" stroke-linejoin="round"/>
<path d="M1.00001 16.2863C1.00033 16.5351 1.00049 16.6595 1.09585 16.7907C1.1211 16.8254 1.17154 16.8759 1.20628 16.9011C1.33746 16.9965 1.46186 16.9967 1.71067 16.997C2.55794 16.9981 4.02351 16.8381 5.01883 15.8427C5.06919 15.7924 5.11853 15.7397 5.16671 15.6851C5.82013 14.9441 5.53923 13.8549 4.84067 13.1563V13.1563C4.14211 12.4578 3.05288 12.1768 2.31191 12.8303C2.25728 12.8784 2.20459 12.9278 2.15423 12.9782C1.15892 13.9735 0.998911 15.439 1.00001 16.2863Z" stroke="#1E1E1E" stroke-linejoin="round"/>
<path d="M9.07881 8.9177C9.56646 9.40535 10.3571 9.40535 10.8447 8.9177V8.9177C11.3324 8.43005 11.3324 7.63941 10.8447 7.15176V7.15176C10.3571 6.66412 9.56646 6.66412 9.07881 7.15177V7.15177C8.59116 7.63941 8.59116 8.43005 9.07881 8.9177V8.9177Z" stroke="#1E1E1E" stroke-linejoin="round"/>
</svg>
