<svg width="20" height="16" viewBox="0 0 20 16" fill="none" xmlns="http://www.w3.org/2000/svg">
<path d="M7 13C7 14.1046 6.10457 15 5 15C3.89543 15 3 14.1046 3 13M7 13C7 11.8954 6.10457 11 5 11C3.89543 11 3 11.8954 3 13M7 13H13M3 13V13C1.89543 13 1 12.1046 1 11V4.6C1 3.10011 1 2.35016 1.38197 1.82443C1.50533 1.65464 1.65464 1.50533 1.82443 1.38197C2.35016 1 3.10011 1 4.6 1H6.9C8.39989 1 9.14984 1 9.67557 1.38197C9.84536 1.50533 9.99467 1.65464 10.118 1.82443C10.5 2.35016 10.5 3.10011 10.5 4.6V6V6C10.5 5.06812 10.5 4.60218 10.6522 4.23463C10.8552 3.74458 11.2446 3.35523 11.7346 3.15224C12.1022 3 12.5681 3 13.5 3H14.2751C15.2345 3 15.7142 3 16.121 3.19294C16.2545 3.25626 16.3806 3.33419 16.4969 3.42529C16.8514 3.70286 17.066 4.13192 17.495 4.99003L18.6199 7.23987C18.788 7.576 18.872 7.74407 18.9231 7.92291C18.9401 7.98236 18.9543 8.04257 18.9657 8.10334C19 8.28614 19 8.47404 19 8.84984V11C19 12.1046 18.1046 13 17 13V13M17 13C17 14.1046 16.1046 15 15 15C13.8954 15 13 14.1046 13 13M17 13C17 11.8954 16.1046 11 15 11C13.8954 11 13 11.8954 13 13M13 5.5H15L16.25 8H13V5.5Z" stroke="#1E1E1E" stroke-linecap="round" stroke-linejoin="round"/>
</svg>
